<mxfile host="app.diagrams.net" modified="2022-05-06T04:29:08.215Z" agent="5.0 (Macintosh; Intel Mac OS X 10_15_7) AppleWebKit/537.36 (KHTML, like Gecko) Chrome/100.0.4896.127 Safari/537.36" etag="9I6mQFV8Vc615ePPQJpW" version="18.0.1" type="github">
  <diagram id="oJo2FGNUgsGGbzG4stuL" name="Page-1">
    <mxGraphModel dx="2276" dy="705" grid="1" gridSize="10" guides="1" tooltips="1" connect="1" arrows="1" fold="1" page="1" pageScale="1" pageWidth="850" pageHeight="1100" math="0" shadow="0">
      <root>
        <mxCell id="0" />
        <mxCell id="1" parent="0" />
        <mxCell id="gEmM8FZAyyN7xgSGTA_p-6" value="" style="whiteSpace=wrap;html=1;aspect=fixed;fillColor=#66B2FF;" parent="1" vertex="1">
          <mxGeometry x="580" y="340" width="380" height="380" as="geometry" />
        </mxCell>
        <mxCell id="gEmM8FZAyyN7xgSGTA_p-7" value="&lt;span&gt;&lt;br&gt;&lt;/span&gt;&lt;span style=&quot;text-align: left;&quot;&gt;0xaba7161a7fb69c88e16ed9f455ce62b791ee4d03&lt;/span&gt;&lt;span&gt;&amp;nbsp;: 0.8 ETH&lt;/span&gt;&lt;br&gt;&lt;span style=&quot;text-align: left;&quot;&gt;0xaba7161a7fb69c88e16ed9f455ce62b791ee4d03&lt;/span&gt;&lt;span&gt;&amp;nbsp;: 0.2 ETH&lt;br&gt;.&lt;br&gt;.&lt;br&gt;.&lt;br&gt;&lt;/span&gt;" style="rounded=0;whiteSpace=wrap;html=1;fontFamily=Fira Code;fontSource=https%3A%2F%2Ffonts.googleapis.com%2Fcss%3Ffamily%3DFira%2BCode;fillColor=#66B2FF;" parent="1" vertex="1">
          <mxGeometry x="580" y="290" width="400" height="70" as="geometry" />
        </mxCell>
        <mxCell id="gEmM8FZAyyN7xgSGTA_p-8" value="&lt;span&gt;Smart Contract ENS&lt;br&gt;.&lt;br&gt;.&lt;br&gt;&lt;/span&gt;" style="rounded=0;whiteSpace=wrap;html=1;fontFamily=Fira Code;fontSource=https%3A%2F%2Ffonts.googleapis.com%2Fcss%3Ffamily%3DFira%2BCode;fillColor=#66B2FF;" parent="1" vertex="1">
          <mxGeometry x="580" y="360" width="400" height="60" as="geometry" />
        </mxCell>
        <mxCell id="gEmM8FZAyyN7xgSGTA_p-9" value=".&lt;br&gt;.&lt;br&gt;." style="rounded=0;whiteSpace=wrap;html=1;fontFamily=Fira Code;fontSource=https%3A%2F%2Ffonts.googleapis.com%2Fcss%3Ffamily%3DFira%2BCode;fillColor=#66B2FF;" parent="1" vertex="1">
          <mxGeometry x="580" y="500" width="400" height="50" as="geometry" />
        </mxCell>
        <mxCell id="gEmM8FZAyyN7xgSGTA_p-10" value="&lt;span&gt;Smart Contract NFT BAYC&lt;br&gt;&amp;nbsp; &amp;nbsp; Owner :&amp;nbsp;&lt;/span&gt;&lt;span style=&quot;text-align: left;&quot;&gt;0xaba7161a7fb69c88e16ed9f455ce62b791ee4d03&lt;/span&gt;&lt;span&gt;&lt;br&gt;&lt;/span&gt;&lt;span&gt;&lt;/span&gt;Contract balance : 0 ETH&lt;br&gt;&lt;br&gt;Token Supply : 10000&lt;br&gt;Token Owners : None" style="rounded=0;whiteSpace=wrap;html=1;fontFamily=Fira Code;fontSource=https%3A%2F%2Ffonts.googleapis.com%2Fcss%3Ffamily%3DFira%2BCode;fillColor=#66B2FF;strokeWidth=5;" parent="1" vertex="1">
          <mxGeometry x="580" y="550" width="400" height="170" as="geometry" />
        </mxCell>
        <mxCell id="gEmM8FZAyyN7xgSGTA_p-11" value="State at time t+1" style="text;html=1;strokeColor=none;fillColor=none;align=center;verticalAlign=middle;whiteSpace=wrap;rounded=0;fontFamily=Fira Code;fontSource=https%3A%2F%2Ffonts.googleapis.com%2Fcss%3Ffamily%3DFira%2BCode;" parent="1" vertex="1">
          <mxGeometry x="850" y="260" width="130" height="30" as="geometry" />
        </mxCell>
        <mxCell id="gEmM8FZAyyN7xgSGTA_p-13" value="From : &lt;br&gt;&amp;nbsp; 0xaba7161a7fb69c88e16ed9f455ce62b791ee4d03&lt;br&gt;&lt;div&gt;&lt;span&gt;To :&amp;nbsp;&lt;br&gt;&lt;/span&gt;&lt;span style=&quot;background-color: initial;&quot;&gt;&amp;nbsp; None&lt;/span&gt;&lt;/div&gt;&lt;div&gt;&lt;span&gt;Data :&amp;nbsp;&lt;/span&gt;&lt;/div&gt;&amp;nbsp; 0x608060405260405180602001604052....." style="rounded=0;whiteSpace=wrap;html=1;fontFamily=Fira Code;fontSource=https%3A%2F%2Ffonts.googleapis.com%2Fcss%3Ffamily%3DFira%2BCode;fillColor=#CCE5FF;align=left;" parent="1" vertex="1">
          <mxGeometry x="200" y="380" width="330" height="120" as="geometry" />
        </mxCell>
        <mxCell id="gEmM8FZAyyN7xgSGTA_p-14" value="BAYC Contract Create Transaction" style="text;html=1;strokeColor=none;fillColor=none;align=center;verticalAlign=middle;whiteSpace=wrap;rounded=0;fontFamily=Fira Code;fontSource=https%3A%2F%2Ffonts.googleapis.com%2Fcss%3Ffamily%3DFira%2BCode;" parent="1" vertex="1">
          <mxGeometry x="250" y="350" width="330" height="30" as="geometry" />
        </mxCell>
        <mxCell id="AZIJAIzopRRp9JZApnOb-1" value="&lt;span&gt;Smart Contract CryptoKitties&lt;br&gt;.&lt;br&gt;.&lt;br&gt;&lt;/span&gt;" style="rounded=0;whiteSpace=wrap;html=1;fontFamily=Fira Code;fontSource=https%3A%2F%2Ffonts.googleapis.com%2Fcss%3Ffamily%3DFira%2BCode;fillColor=#66B2FF;" vertex="1" parent="1">
          <mxGeometry x="580" y="420" width="400" height="80" as="geometry" />
        </mxCell>
        <mxCell id="AZIJAIzopRRp9JZApnOb-2" value="" style="whiteSpace=wrap;html=1;aspect=fixed;fillColor=#66B2FF;" vertex="1" parent="1">
          <mxGeometry x="-250" y="445" width="210" height="210" as="geometry" />
        </mxCell>
        <mxCell id="AZIJAIzopRRp9JZApnOb-3" value="&lt;span&gt;&lt;br&gt;&lt;/span&gt;&lt;span style=&quot;text-align: left;&quot;&gt;0xaba7161a7fb69c88e16ed9f455ce62b791ee4d03&lt;/span&gt;&lt;span&gt;&amp;nbsp;: 0.8 ETH&lt;/span&gt;&lt;br&gt;&lt;span style=&quot;text-align: left;&quot;&gt;0xaba7161a7fb69c88e16ed9f455ce62b791ee4d03&lt;/span&gt;&lt;span&gt;&amp;nbsp;: 0.2 ETH&lt;br&gt;.&lt;br&gt;.&lt;br&gt;.&lt;br&gt;&lt;/span&gt;" style="rounded=0;whiteSpace=wrap;html=1;fontFamily=Fira Code;fontSource=https%3A%2F%2Ffonts.googleapis.com%2Fcss%3Ffamily%3DFira%2BCode;fillColor=#66B2FF;" vertex="1" parent="1">
          <mxGeometry x="-250" y="395" width="400" height="70" as="geometry" />
        </mxCell>
        <mxCell id="AZIJAIzopRRp9JZApnOb-4" value="&lt;span&gt;Smart Contract ENS&lt;br&gt;.&lt;br&gt;.&lt;br&gt;&lt;/span&gt;" style="rounded=0;whiteSpace=wrap;html=1;fontFamily=Fira Code;fontSource=https%3A%2F%2Ffonts.googleapis.com%2Fcss%3Ffamily%3DFira%2BCode;fillColor=#66B2FF;" vertex="1" parent="1">
          <mxGeometry x="-250" y="465" width="400" height="60" as="geometry" />
        </mxCell>
        <mxCell id="AZIJAIzopRRp9JZApnOb-5" value=".&lt;br&gt;.&lt;br&gt;." style="rounded=0;whiteSpace=wrap;html=1;fontFamily=Fira Code;fontSource=https%3A%2F%2Ffonts.googleapis.com%2Fcss%3Ffamily%3DFira%2BCode;fillColor=#66B2FF;" vertex="1" parent="1">
          <mxGeometry x="-250" y="605" width="400" height="50" as="geometry" />
        </mxCell>
        <mxCell id="AZIJAIzopRRp9JZApnOb-7" value="State at time t" style="text;html=1;strokeColor=none;fillColor=none;align=center;verticalAlign=middle;whiteSpace=wrap;rounded=0;fontFamily=Fira Code;fontSource=https%3A%2F%2Ffonts.googleapis.com%2Fcss%3Ffamily%3DFira%2BCode;" vertex="1" parent="1">
          <mxGeometry x="10" y="350" width="130" height="30" as="geometry" />
        </mxCell>
        <mxCell id="AZIJAIzopRRp9JZApnOb-8" value="&lt;span&gt;Smart Contract CryptoKitties&lt;br&gt;.&lt;br&gt;.&lt;br&gt;&lt;/span&gt;" style="rounded=0;whiteSpace=wrap;html=1;fontFamily=Fira Code;fontSource=https%3A%2F%2Ffonts.googleapis.com%2Fcss%3Ffamily%3DFira%2BCode;fillColor=#66B2FF;" vertex="1" parent="1">
          <mxGeometry x="-250" y="525" width="400" height="80" as="geometry" />
        </mxCell>
        <mxCell id="AZIJAIzopRRp9JZApnOb-10" value="" style="endArrow=classic;html=1;rounded=0;fontFamily=Fira Code;fontSource=https%3A%2F%2Ffonts.googleapis.com%2Fcss%3Ffamily%3DFira%2BCode;fontSize=12;fontColor=#000000;" edge="1" parent="1">
          <mxGeometry width="50" height="50" relative="1" as="geometry">
            <mxPoint x="160" y="520" as="sourcePoint" />
            <mxPoint x="560" y="520" as="targetPoint" />
          </mxGeometry>
        </mxCell>
      </root>
    </mxGraphModel>
  </diagram>
</mxfile>
